<svg xmlns="http://www.w3.org/2000/svg" width="512.002" height="408.247" viewBox="0 0 512.002 408.247">
  <g id="cloud" transform="translate(0 -51.879)">
    <path id="Path_1" data-name="Path 1" d="M158.264,187.777h36.964a108.592,108.592,0,0,1,65.73-52.526,38.082,38.082,0,0,0-46.584-21.837c.019-.578.044-1.155.044-1.738a51.173,51.173,0,0,0-101.077-11.321,30.716,30.716,0,0,0-34.982,11.662,38.5,38.5,0,1,0-9.682,75.758h61.542" fill="#9fdef7"/>
    <path id="Path_2" data-name="Path 2" d="M369.578,165.557a108.364,108.364,0,0,0-184.857,50.017,65.012,65.012,0,0,0-74.075,24.7A81.524,81.524,0,1,0,90.145,400.7H180.02a50.484,50.484,0,0,1,65.553-47.809c-.024-.764-.058-1.528-.058-2.3a67.859,67.859,0,0,1,134.037-15.015,40.705,40.705,0,0,1,46.383,15.466,51.105,51.105,0,0,1,56.607,23.142,80.6,80.6,0,0,0-83.864-130.954c.039-1.221.092-2.444.092-3.675a107.9,107.9,0,0,0-12.411-50.4" fill="#beeafc"/>
    <path id="Path_3" data-name="Path 3" d="M381.527,451.5H230.468a50.453,50.453,0,1,1,15.107-98.6c-.024-.764-.058-1.528-.058-2.3a67.859,67.859,0,0,1,134.037-15.015,40.705,40.705,0,0,1,46.383,15.466A51.048,51.048,0,1,1,438.775,451.5H409.563" fill="#e4f2f9"/>
    <path id="Path_4" data-name="Path 4" d="M284.275,336.6a125.734,125.734,0,0,1,10.809-51.157,67.878,67.878,0,0,0-49.567,65.348c0,.773.033,1.538.058,2.3a50.458,50.458,0,1,0-15.107,98.6H358.675A126.2,126.2,0,0,1,284.275,336.6Z" fill="#d7edf9"/>
    <path id="Path_5" data-name="Path 5" d="M95.06,240.178c-1.626-.1-3.263-.152-4.913-.152a81.516,81.516,0,0,0,0,163.032h89.875a50.233,50.233,0,0,1,6.246-23.987A252.957,252.957,0,0,1,95.06,240.178Z" fill="#aee4ff"/>
    <path id="Path_6" data-name="Path 6" d="M87.5,178.611A252.714,252.714,0,0,1,99.088,102.73a30.714,30.714,0,0,0-19.647,12.727,38.5,38.5,0,1,0-9.682,75.758H87.806Q87.5,184.949,87.5,178.611Z" fill="#83d4ed"/>
    <path id="Path_7" data-name="Path 7" d="M512,320.127a89.261,89.261,0,0,0-104.829-87.834A117.208,117.208,0,0,0,394,185.13a8.628,8.628,0,1,0-15.271,8.037,99.948,99.948,0,0,1,11.417,46.388c0,.88-.031,1.757-.061,2.629l-.026.77a8.628,8.628,0,0,0,11.2,8.508,71.961,71.961,0,0,1,81.4,108.586c-.3-.327-.622-.636-.933-.957-.339-.352-.674-.7-1.02-1.047-.235-.231-.476-.454-.714-.681q-.811-.777-1.649-1.526c-.091-.081-.183-.159-.275-.238a59.414,59.414,0,0,0-39.291-14.817,60.14,60.14,0,0,0-9.361.734A49.339,49.339,0,0,0,385.57,325.33a76.487,76.487,0,0,0-148.24,17.026,59.818,59.818,0,0,0-6.861-.395c-.969,0-1.931.027-2.887.073-.367.017-.729.052-1.094.076-.58.039-1.161.077-1.736.133-.464.045-.923.105-1.384.161s-.923.11-1.382.176c-.527.077-1.05.166-1.574.256-.372.065-.745.128-1.115.2-.586.112-1.168.237-1.747.367-.284.064-.567.128-.849.2q-.977.234-1.94.5l-.535.152c-.732.21-1.459.43-2.18.668l-.12.041a59.254,59.254,0,0,0-39.857,47.113H90.146a72.888,72.888,0,1,1,18.343-143.449,8.637,8.637,0,0,0,9.251-3.441,56.38,56.38,0,0,1,64.251-21.423,8.629,8.629,0,0,0,11.146-6.283,100.836,100.836,0,0,1,9-24.539,8.551,8.551,0,0,0,.664-1.031,100.367,100.367,0,0,1,60.5-48.349,8.8,8.8,0,0,0,.894-.307,101.065,101.065,0,0,1,26.2-3.443,98.783,98.783,0,0,1,72.876,31.644,8.629,8.629,0,0,0,12.606-11.786,116.849,116.849,0,0,0-110.368-34.419,46.511,46.511,0,0,0-39.745-22.2q-1.666,0-3.323.116a59.82,59.82,0,0,0-115.08-12.839q-1.866-.177-3.751-.178a39.354,39.354,0,0,0-28.685,12.427,47.122,47.122,0,1,0-6.25,93.829h61.542a8.628,8.628,0,0,0,0-17.256H68.681a29.866,29.866,0,1,1,7.527-58.775,8.629,8.629,0,0,0,9.246-3.442,22.086,22.086,0,0,1,25.16-8.391,8.628,8.628,0,0,0,11.145-6.284,42.544,42.544,0,0,1,84.032,9.42c0,.366-.015.728-.027,1.09l-.013.366a8.629,8.629,0,0,0,11.2,8.517,29.485,29.485,0,0,1,31.093,8.843c-.3.118-.593.25-.892.37-.547.218-1.087.451-1.631.676-.849.355-1.7.709-2.539,1.083-1,.444-2,.914-2.988,1.386-.342.164-.686.322-1.027.49a116.255,116.255,0,0,0-22.1,14.056,117.5,117.5,0,0,0-23.8,26.153c-.283.422-.554.851-.83,1.278-.527.813-1.049,1.63-1.556,2.457-.147.238-.3.469-.449.709H158.261a8.628,8.628,0,1,0,0,17.256h23.407c-1.129,2.834-2.155,5.711-3.058,8.63a73.625,73.625,0,0,0-71.5,25.6,90.149,90.149,0,1,0-16.962,178.69h81.833a59.162,59.162,0,0,0,58.488,50.8h151.06a8.628,8.628,0,0,0,0-17.256H230.468a41.87,41.87,0,0,1-41.823-41.822c0-.2.012-.4.015-.6.009-.6.024-1.2.057-1.8,0-.074.012-.148.017-.222.04-.642.09-1.28.159-1.913,0,0,0-.008,0-.012a41.858,41.858,0,0,1,54.1-35.383,8.629,8.629,0,0,0,11.2-8.507l-.018-.521c-.017-.5-.036-1-.036-1.506a59.231,59.231,0,0,1,116.993-13.113,8.629,8.629,0,0,0,11.148,6.283,32.079,32.079,0,0,1,36.558,12.193A8.625,8.625,0,0,0,428.1,359.4a42.588,42.588,0,0,1,10.675-1.356c.841,0,1.675.032,2.507.08.311.018.619.046.929.071q.744.059,1.483.143c.4.047.809.1,1.21.154.328.047.654.105.98.159a42.454,42.454,0,0,1,26.839,16.406l.078.1a42.393,42.393,0,0,1-34.026,67.713h-29.21a8.628,8.628,0,0,0,0,17.256h29.211a59.64,59.64,0,0,0,54.092-84.833A88.969,88.969,0,0,0,512,320.127Z" fill="#231f20"/>
  </g>
</svg>
